<svg width="25" height="25" viewBox="0 0 25 25" fill="none" xmlns="http://www.w3.org/2000/svg">
<path fill-rule="evenodd" clip-rule="evenodd" d="M0.519644 2.05516C2.69898 1.99105 5.79053 2.17214 8.07399 2.94882C10.3574 3.72549 12.1309 6.98152 12.322 7.3133C8.83244 7.07236 7.17703 6.92632 4.90381 6.07663C2.63059 5.22693 0.259422 2.0629 0.519644 2.05516Z" fill="#CDCC04"/>
<path fill-rule="evenodd" clip-rule="evenodd" d="M24.4804 2.05516C24.7406 2.0629 22.3694 5.22693 20.0962 6.07663C17.823 6.92632 16.1676 7.07236 12.678 7.3133C12.8691 6.98152 14.6424 3.72549 16.926 2.94882C19.2095 2.17214 22.301 1.99105 24.4804 2.05516Z" fill="#CDCC04"/>
<path fill-rule="evenodd" clip-rule="evenodd" d="M19.7997 15.254C19.7997 19.1675 16.6272 22.34 12.7137 22.34C8.80017 22.34 5.62762 19.1675 5.62762 15.254C5.62762 11.3405 8.80017 8.16791 12.7137 8.16791C16.6272 8.16791 19.7997 11.3405 19.7997 15.254Z" fill="#31BCD3"/>
</svg>
