<svg width="29" height="29" viewBox="0 0 29 29" fill="none" xmlns="http://www.w3.org/2000/svg">
<g clip-path="url(#clip0_402:442)">
<path d="M19.9639 12.4609C19.9639 11.8353 19.4567 11.3281 18.8311 11.3281H7.16309C6.53743 11.3281 6.03027 11.8353 6.03027 12.4609C6.03027 13.0866 6.53743 13.5938 7.16309 13.5938H18.8311C19.4567 13.5938 19.9639 13.0866 19.9639 12.4609Z" fill="#161616"/>
<path d="M7.16309 15.8594C6.53743 15.8594 6.03027 16.3665 6.03027 16.9922C6.03027 17.6178 6.53743 18.125 7.16309 18.125H14.2494C14.8751 18.125 15.3823 17.6178 15.3823 16.9922C15.3823 16.3665 14.8751 15.8594 14.2494 15.8594H7.16309Z" fill="#161616"/>
<path d="M9.82477 26.7344H6.03613C4.78687 26.7344 3.77051 25.718 3.77051 24.4688V4.53125C3.77051 3.28198 4.78687 2.26562 6.03613 2.26562H19.9634C21.2127 2.26562 22.2291 3.28198 22.2291 4.53125V11.498C22.2291 12.1237 22.7362 12.6309 23.3619 12.6309C23.9875 12.6309 24.4947 12.1237 24.4947 11.498V4.53125C24.4947 2.03272 22.462 0 19.9634 0H6.03613C3.5376 0 1.50488 2.03272 1.50488 4.53125V24.4688C1.50488 26.9673 3.5376 29 6.03613 29H9.82477C10.4504 29 10.9576 28.4928 10.9576 27.8672C10.9576 27.2415 10.4504 26.7344 9.82477 26.7344Z" fill="#161616"/>
<path d="M26.5012 16.4016C25.1762 15.0766 23.0202 15.0765 21.696 16.4007L15.4767 22.6063C15.3446 22.7381 15.2472 22.9004 15.1929 23.0789L13.8385 27.538C13.7184 27.9333 13.823 28.3626 14.1116 28.6583C14.3277 28.8798 14.6213 29.0001 14.9225 29.0001C15.0232 29.0001 15.125 28.9866 15.2248 28.9589L19.7971 27.6924C19.9853 27.6403 20.1568 27.5404 20.295 27.4024L26.5013 21.2078C27.8263 19.8828 27.8263 17.7268 26.5012 16.4016ZM18.9053 25.5885L16.605 26.2257L17.2782 24.0094L21.4746 19.8223L23.077 21.4246L18.9053 25.5885ZM24.9001 19.6051L24.6806 19.8241L23.0785 18.2221L23.2972 18.0038C23.7389 17.5621 24.4576 17.5621 24.8993 18.0038C25.341 18.4455 25.341 19.1641 24.9001 19.6051Z" fill="#161616"/>
<path d="M18.8311 6.79688H7.16309C6.53743 6.79688 6.03027 7.30404 6.03027 7.92969C6.03027 8.55534 6.53743 9.0625 7.16309 9.0625H18.8311C19.4567 9.0625 19.9639 8.55534 19.9639 7.92969C19.9639 7.30404 19.4567 6.79688 18.8311 6.79688Z" fill="#161616"/>
</g>
<defs>
<clipPath id="clip0_402:442">
<rect width="29" height="29" fill="white"/>
</clipPath>
</defs>
</svg>
