<svg width="15" height="21" viewBox="0 0 15 21" fill="none" xmlns="http://www.w3.org/2000/svg">
<path d="M7.6226 0.660156C7.73978 0.660156 7.85046 0.686198 7.95463 0.738281C8.05879 0.790365 8.14994 0.86849 8.22807 0.972656L8.59916 1.46094L9.26322 2.35938L9.8101 3.14062L10.1226 3.57031L10.5913 4.27344L11.0796 5.01562L11.5874 5.79688L11.9195 6.34375L12.2515 6.89062C12.2775 6.92969 12.3036 6.97526 12.3296 7.02734C12.3557 7.06641 12.3817 7.11198 12.4078 7.16406L12.7203 7.71094C12.7723 7.80208 12.8244 7.89974 12.8765 8.00391C12.9286 8.09505 12.9807 8.1862 13.0328 8.27734L13.3257 8.84375C13.7424 9.67708 14.0874 10.4844 14.3609 11.2656C14.6343 12.0469 14.771 12.737 14.771 13.3359C14.771 14.3516 14.5822 15.3021 14.2046 16.1875C13.84 17.0859 13.3322 17.8672 12.6812 18.5312C12.0301 19.1823 11.2749 19.7031 10.4156 20.0938C9.54317 20.4714 8.61218 20.6602 7.6226 20.6602C6.64603 20.6602 5.72156 20.4714 4.84916 20.0938C3.98978 19.7031 3.23458 19.1823 2.58353 18.5312C1.93249 17.8672 1.41817 17.0859 1.04057 16.1875C0.675982 15.3021 0.49369 14.3516 0.49369 13.3359C0.49369 12.6849 0.64994 11.9362 0.96244 11.0898C1.27494 10.2435 1.66557 9.36458 2.13432 8.45312L2.44682 7.88672C2.47286 7.84766 2.4989 7.80208 2.52494 7.75C2.55098 7.69792 2.57702 7.65234 2.60307 7.61328L2.91557 7.04688L3.09135 6.75391L3.42338 6.20703L3.75541 5.66016L4.10697 5.13281L4.61478 4.35156L5.08353 3.64844L5.689 2.78906L6.21635 2.04688L6.80228 1.26562L7.03666 0.972656C7.10176 0.86849 7.1864 0.790365 7.29057 0.738281C7.39473 0.686198 7.50541 0.660156 7.6226 0.660156ZM7.6226 2.22266L7.09525 2.94531L6.74369 3.45312C6.35307 3.98698 5.97546 4.52734 5.61088 5.07422C5.24629 5.62109 4.89473 6.16797 4.55619 6.71484C4.11348 7.43099 3.71635 8.12109 3.36478 8.78516C3.01322 9.4362 2.71374 10.0417 2.46635 10.6016C2.23197 11.1615 2.04968 11.6758 1.91947 12.1445C1.78926 12.6003 1.72416 12.9974 1.72416 13.3359C1.72416 14.1823 1.88041 14.9766 2.19291 15.7188C2.50541 16.4479 2.92859 17.0924 3.46244 17.6523C3.99629 18.1992 4.62129 18.6289 5.33744 18.9414C6.05359 19.2669 6.81531 19.4297 7.6226 19.4297C8.44291 19.4297 9.21114 19.2669 9.92728 18.9414C10.6434 18.6289 11.2684 18.1992 11.8023 17.6523C12.3361 17.0924 12.7593 16.4479 13.0718 15.7188C13.3843 14.9766 13.5406 14.1823 13.5406 13.3359C13.5406 12.8932 13.4234 12.3398 13.189 11.6758C12.9676 10.9987 12.6486 10.2435 12.232 9.41016L11.939 8.84375C11.913 8.80469 11.8869 8.75911 11.8609 8.70703C11.8348 8.65495 11.8088 8.60286 11.7828 8.55078L11.4312 7.96484C11.327 7.75651 11.2098 7.54818 11.0796 7.33984C10.9624 7.13151 10.8322 6.92318 10.689 6.71484C10.3635 6.16797 10.0119 5.62109 9.63432 5.07422C9.26973 4.52734 8.89864 3.98698 8.52103 3.45312L8.14994 2.94531L7.6226 2.22266ZM10.9624 13.043C11.1187 13.043 11.2554 13.1016 11.3726 13.2188C11.4898 13.3229 11.5549 13.4531 11.5679 13.6094C11.5679 14.0521 11.4768 14.5013 11.2945 14.957C11.1122 15.4128 10.8648 15.8229 10.5523 16.1875C10.2398 16.5521 9.88171 16.8516 9.47807 17.0859C9.07442 17.3203 8.64473 17.4375 8.189 17.4375C8.03275 17.4245 7.89603 17.3594 7.77885 17.2422C7.67468 17.125 7.6226 16.9883 7.6226 16.832C7.6226 16.6758 7.67468 16.5391 7.77885 16.4219C7.89603 16.3047 8.03275 16.2396 8.189 16.2266C8.7489 16.2266 9.2502 15.9336 9.69291 15.3477C10.1356 14.7487 10.357 14.1693 10.357 13.6094C10.37 13.4531 10.4351 13.3229 10.5523 13.2188C10.6695 13.1016 10.8062 13.043 10.9624 13.043Z" fill="white"/>
</svg>
